<svg t="1753945733795" class="icon" viewBox="0 0 1024 1024" version="1.1" xmlns="http://www.w3.org/2000/svg" p-id="35076" width="200" height="200">
  <rect x="0" y="0" width="1024" height="1024" fill="rgb(254,149,29)"/>
  <g transform="scale(0.80) translate(160, 125)">
    <path d="M893.184 545.4336a15.34464 15.34464 0 0 0-16.4864-14.1824c-8.448 0.6144-14.7968 8.0384-14.1824 16.4864 8.9088 118.1184-18.3296 213.248-80.896 282.8288-89.8048 99.7888-217.6512 111.104-254.72 112.2304-116.6848 3.4816-343.4496-58.0096-365.312-315.5968-14.6432-173.312 81.2032-272.4864 126.5664-309.248 1.1776-0.6656 2.2016-1.536 3.1744-2.5088 10.752-8.4992 18.1248-13.1072 19.456-13.9264 0.6656-0.4096 1.3312-0.8704 1.9456-1.3824 0.512-0.4608 51.0464-41.8304 153.7536-50.2784-1.7408 14.8992-2.7136 27.8016-3.328 37.632-30.208 0.4608-53.1968 16.3328-63.2832 28.0576a15.3856 15.3856 0 0 0 1.5872 21.6576c6.4 5.5296 16.128 4.8128 21.6576-1.5872 0.2048-0.256 16.4864-18.688 43.776-17.408 1.9456 1.8944 4.352 3.328 7.1168 3.9936 3.9936 0.9728 12.1344 2.7648 21.4016 3.5328 1.5872 0.3584 3.2256 0.4608 4.8128 0.3072 1.28 0.0512 2.5088 0.1024 3.7888 0.1024 9.3696 0 18.8928-1.4848 25.7536-6.0416 0.3584-0.256 0.6656-0.512 0.9728-0.768 17.92-1.6896 30.208 2.9696 36.7104 14.0288a15.2576 15.2576 0 0 0 13.2608 7.5776 15.31904 15.31904 0 0 0 13.2096-23.0912c-8.96-15.3088-26.2656-30.5152-59.1872-29.4912-0.768-13.4144-0.0512-26.368 1.7408-38.7072 114.2784 8.9088 251.5456 64.7168 303.4624 196.2496a15.3088 15.3088 0 0 0 19.9168 8.6528c7.8848-3.1232 11.776-12.032 8.6528-19.9168-56.4224-143.0016-202.4448-204.4928-325.2224-215.2448 19.4048-63.6416 63.6928-105.6768 64.3072-106.24 3.9424-3.6864 5.6832-9.1648 4.608-14.4384a15.4624 15.4624 0 0 0-10.0352-11.3664l-58.3168-20.1216c-5.9392-2.048-12.4928-0.256-16.5888 4.4544-20.0192 23.04-33.8432 55.1424-43.4688 88.2176-109.6192-132.864-278.1696-72.9088-319.5392-47.872-29.3376 17.7664-67.2256-0.4096-67.5328-0.6144a15.34464 15.34464 0 0 0-22.2208 13.1072c-3.2768 84.7872 67.1744 153.1392 118.2208 174.592 0.2048 0.1024 0.3584 0.1536 0.5632 0.2048 17.7152 6.6048 35.2768 11.776 52.5824 15.4112a397.7984 397.7984 0 0 0-41.1136 46.7968C165.2736 414.6688 120.3712 504.2688 131.0208 629.76c9.984 117.5552 62.72 212.0704 152.576 273.3056 65.3824 44.5952 151.7568 70.6048 233.1136 70.6048 3.7376 0 7.424-0.0512 11.1104-0.1536 40.1408-1.1776 178.688-13.5168 276.6336-122.368 68.4544-76.0832 98.304-178.8928 88.7296-305.7152z m-349.0304-445.5424l25.7536 8.8576c-26.0096 30.7712-71.9872 98.2528-65.6384 184.4736-1.5872 0.4096-3.072 0.768-4.7104 1.2288-1.9968-0.8192-3.9936-1.4336-5.9392-2.048 0.768-13.0048 2.3552-33.28 5.632-56.4736 6.4512-44.9536 19.2512-100.7104 44.9024-136.0384zM204.3904 270.6944c-37.3248-15.8208-89.4976-64.0512-98.048-123.648 19.3536 4.7104 47.8208 7.0144 73.8304-8.7552 38.144-23.0912 199.3728-80.0768 294.2976 60.3648-1.3824 6.8096-2.6112 13.5168-3.6864 20.0704-110.2848 7.3728-168.5504 50.432-176.896 57.088-2.4064 1.536-8.96 5.8368-18.0736 12.9024-23.1424-2.9184-47.104-8.96-71.424-18.0224z" fill="#FFFFFF" p-id="35077"></path>
    <path d="M404.992 850.8928a15.32928 15.32928 0 0 0 20.3776-7.4752c3.584-7.68 0.2048-16.8448-7.4752-20.3776-92.1088-42.752-143.6672-113.0496-153.2928-208.9984a15.44704 15.44704 0 0 0-16.7936-13.7728 15.4112 15.4112 0 0 0-13.7728 16.7936c10.8032 107.52 68.3008 186.1632 170.9568 233.8304zM246.4768 567.9616c8.0896 0 14.848-6.2976 15.3088-14.4896 0.3584-6.2976 0.8192-9.8816 0.8192-9.9328 1.1264-8.3968-4.8128-16.128-13.2096-17.2544-8.3456-1.0752-16.128 4.8128-17.2544 13.2096-0.0512 0.4608-0.6144 4.7616-1.024 12.2368a15.34976 15.34976 0 0 0 14.4896 16.1792c0.3072 0.0512 0.5632 0.0512 0.8704 0.0512z" fill="#FFFFFF" p-id="35078"></path>
  </g>
</svg>